<svg xmlns="http://www.w3.org/2000/svg" xmlns:xlink="http://www.w3.org/1999/xlink" width="1080" zoomAndPan="magnify" viewBox="0 0 810 809.999993" height="1080" preserveAspectRatio="xMidYMid meet" version="1.0"><defs><clipPath id="339f488e95"><path d="M 175.078125 426 L 634.828125 426 L 634.828125 663.898438 L 175.078125 663.898438 Z M 175.078125 426 " clip-rule="nonzero"/></clipPath><clipPath id="262cb1b2ad"><path d="M 280 146.398438 L 530 146.398438 L 530 397 L 280 397 Z M 280 146.398438 " clip-rule="nonzero"/></clipPath></defs><path fill="#80b3ff" d="M 629.007812 657.96875 L 181.203125 657.96875 C 181.203125 657.96875 187.003906 436.277344 405.105469 432.261719 C 405.105469 432.261719 629.007812 432.058594 629.007812 657.96875 " fill-opacity="1" fill-rule="nonzero"/><g clip-path="url(#339f488e95)"><path fill="#80b3ff" d="M 629.007812 657.96875 L 629.007812 652.390625 L 181.203125 652.390625 L 181.203125 657.96875 L 186.78125 658.125 L 186.78125 658.015625 C 186.847656 655.113281 189.171875 600.40625 217.664062 546.609375 C 231.898438 519.703125 252.558594 493.0625 282.679688 472.871094 C 312.800781 452.675781 352.449219 438.820312 405.195312 437.839844 L 405.105469 432.261719 L 405.105469 437.839844 C 405.105469 437.839844 405.953125 437.839844 407.5625 437.90625 C 413.609375 438.105469 430.273438 439.089844 451.785156 443.664062 C 484.070312 450.558594 527.132812 465.59375 561.851562 497.96875 C 579.207031 514.191406 594.558594 534.695312 605.605469 560.890625 C 616.671875 587.085938 623.429688 618.992188 623.429688 657.96875 L 629.007812 657.96875 L 629.007812 652.394531 L 629.007812 657.96875 L 634.585938 657.96875 C 634.609375 600.695312 620.375 557.1875 598.796875 524.5 C 582.621094 500 562.40625 481.59375 541.253906 467.847656 C 509.503906 447.234375 475.679688 436.992188 449.707031 431.859375 C 423.738281 426.726562 405.597656 426.683594 405.105469 426.683594 L 404.996094 426.683594 C 349.550781 427.6875 307.089844 442.636719 274.960938 464.613281 C 250.863281 481.101562 232.589844 501.472656 218.777344 522.691406 C 198.074219 554.53125 187.339844 588.199219 181.71875 613.949219 C 176.09375 639.71875 175.625 657.570312 175.625 657.835938 C 175.582031 659.355469 176.140625 660.804688 177.210938 661.875 C 178.257812 662.945312 179.6875 663.546875 181.203125 663.546875 L 629.007812 663.546875 C 630.480469 663.546875 631.910156 662.96875 632.957031 661.917969 C 634.007812 660.894531 634.585938 659.441406 634.585938 657.96875 L 629.007812 657.96875 " fill-opacity="1" fill-rule="nonzero"/></g><path fill="#80b3ff" d="M 285.894531 271.234375 C 285.894531 205.390625 339.265625 152.007812 405.105469 152.007812 C 470.949219 152.007812 524.320312 205.390625 524.320312 271.234375 C 524.320312 337.078125 470.949219 390.46875 405.105469 390.46875 C 339.265625 390.46875 285.894531 337.078125 285.894531 271.234375 " fill-opacity="1" fill-rule="nonzero"/><g clip-path="url(#262cb1b2ad)"><path fill="#80b3ff" d="M 285.894531 271.234375 L 291.472656 271.234375 C 291.472656 239.820312 304.167969 211.460938 324.738281 190.867188 C 345.332031 170.292969 373.691406 157.578125 405.105469 157.578125 C 436.523438 157.578125 464.882812 170.292969 485.476562 190.867188 C 506.046875 211.460938 518.742188 239.820312 518.742188 271.234375 C 518.742188 302.628906 506.046875 331.007812 485.476562 351.582031 C 464.882812 372.175781 436.5 384.871094 405.105469 384.890625 C 373.691406 384.871094 345.332031 372.175781 324.761719 351.582031 C 304.167969 331.007812 291.472656 302.628906 291.472656 271.234375 L 280.316406 271.234375 C 280.316406 340.15625 336.164062 396.027344 405.105469 396.046875 C 474.050781 396.027344 529.898438 340.15625 529.898438 271.234375 C 529.898438 202.289062 474.050781 146.429688 405.105469 146.429688 C 336.164062 146.429688 280.316406 202.289062 280.316406 271.234375 L 285.894531 271.234375 " fill-opacity="1" fill-rule="nonzero"/></g></svg>